<svg width="24" height="24" viewBox="0 0 24 24" fill="none" xmlns="http://www.w3.org/2000/svg">
<path d="M3.02716 0.637695C1.52147 0.637695 0.289062 1.86971 0.289062 3.37492V20.8931C0.289062 22.3984 1.52147 23.6304 3.02716 23.6304H12.2447C12.3039 23.6401 12.3642 23.6401 12.4234 23.6304H15.5305C15.5896 23.6401 15.6499 23.6401 15.7091 23.6304H20.551C22.0567 23.6304 23.2891 22.3984 23.2891 20.8931V3.37492C23.2891 1.86971 22.0567 0.637695 20.551 0.637695H3.02716ZM3.02716 1.73258H20.551C21.4647 1.73258 22.1939 2.46152 22.1939 3.37492V20.8931C22.1939 21.8065 21.4647 22.5355 20.551 22.5355H16.1701V14.8713H18.2621L19.029 11.0391H16.1701V9.94425C16.1701 9.63906 16.1991 9.6152 16.3016 9.54864C16.4041 9.48208 16.7209 9.39681 17.2653 9.39681H18.9081V6.31423L18.5958 6.1656C18.5958 6.1656 17.3379 5.5647 15.6224 5.5647C14.3903 5.5647 13.3781 6.05545 12.7303 6.86488C12.0826 7.6743 11.7891 8.75812 11.7891 9.94425V11.0391H10.1462V14.8713H11.7891V22.5355H3.02716C2.11346 22.5355 1.3843 21.8065 1.3843 20.8931V3.37492C1.3843 2.46152 2.11346 1.73258 3.02716 1.73258ZM15.6224 6.65959C16.761 6.65959 17.4774 6.91056 17.8129 7.04344V8.30192H17.2653C16.6351 8.30192 16.1301 8.35404 15.7048 8.63017C15.2795 8.90631 15.0748 9.43047 15.0748 9.94425V12.134H17.692L17.3637 13.7764H15.0748V22.5355H12.8843V13.7764H11.2415V12.134H12.8843V9.94425C12.8843 8.94061 13.1385 8.10837 13.586 7.54918C14.0335 6.98999 14.6641 6.65959 15.6224 6.65959Z" fill="white"/>
</svg>
