<svg width="24" height="24" viewBox="0 0 24 24" fill="none" xmlns="http://www.w3.org/2000/svg">
<path d="M7.33451 0.637695C3.58786 0.637695 0.539062 3.68649 0.539062 7.43315V16.8422C0.539062 20.5889 3.58786 23.6377 7.33451 23.6377H16.7436C20.4903 23.6377 23.5391 20.5889 23.5391 16.8422V7.43315C23.5391 3.68649 20.4903 0.637695 16.7436 0.637695H7.33451ZM7.33451 1.68315H16.7436C19.9252 1.68315 22.4936 4.25158 22.4936 7.43315V16.8422C22.4936 20.0238 19.9252 22.5922 16.7436 22.5922H7.33451C4.15294 22.5922 1.58451 20.0238 1.58451 16.8422V7.43315C1.58451 4.25158 4.15294 1.68315 7.33451 1.68315ZM18.3118 4.81951C18.0346 4.81951 17.7686 4.92966 17.5726 5.12572C17.3765 5.32178 17.2664 5.5877 17.2664 5.86497C17.2664 6.14224 17.3765 6.40815 17.5726 6.60422C17.7686 6.80028 18.0346 6.91042 18.3118 6.91042C18.5891 6.91042 18.855 6.80028 19.0511 6.60422C19.2471 6.40815 19.3573 6.14224 19.3573 5.86497C19.3573 5.5877 19.2471 5.32178 19.0511 5.12572C18.855 4.92966 18.5891 4.81951 18.3118 4.81951ZM12.0391 6.3877C8.86961 6.3877 6.28906 8.96825 6.28906 12.1377C6.28906 15.3071 8.86961 17.8877 12.0391 17.8877C15.2085 17.8877 17.7891 15.3071 17.7891 12.1377C17.7891 8.96825 15.2085 6.3877 12.0391 6.3877ZM12.0391 7.43315C14.6435 7.43315 16.7436 9.53325 16.7436 12.1377C16.7436 14.7421 14.6435 16.8422 12.0391 16.8422C9.43462 16.8422 7.33451 14.7421 7.33451 12.1377C7.33451 9.53325 9.43462 7.43315 12.0391 7.43315Z" fill="white" stroke="white" stroke-width="0.3"/>
</svg>
