<svg width="27" height="28" viewBox="0 0 27 28" fill="none" xmlns="http://www.w3.org/2000/svg">
<path d="M22.736 4.19198C20.2227 1.81887 16.9542 0.516357 13.4836 0.516357H0V27.4835H26.9671V14V0.516357H26.4116L22.736 4.19198ZM13.0899 26.1433L0.949244 14L6.93865 8.01053L13.0926 14.1645V26.1433H13.0899ZM13.0899 13.0507L7.49417 7.45501L13.0926 1.85663V13.0507H13.0899ZM13.8773 1.30919C16.992 1.40358 19.9125 2.6144 22.1805 4.7502L13.8773 13.0534V1.30919ZM12.5343 1.3011L6.93865 6.89948L1.34027 1.3011H12.5343ZM6.38312 7.45501L0.784744 13.0507V1.85663L6.38312 7.45501ZM0.784744 26.6988V14.9492L12.5343 26.6988H0.784744ZM26.1824 18.5385V26.6988H18.0221C21.6277 25.4152 24.7963 22.4515 26.1824 18.5385ZM26.177 14.3236C26.1824 20.4451 21.0559 26.6961 13.8746 26.6907V14.1618L22.7333 5.30303C24.9311 7.64917 26.2741 10.8286 26.177 14.3236ZM25.9451 8.83572C25.3222 7.35792 24.4808 6.00687 23.2915 4.74751L23.2942 4.74481L26.1797 1.85932V9.44518C26.1393 9.32653 26.0503 9.09191 25.9451 8.83572Z" fill="white"/>
</svg>
