<svg width="28" height="28" viewBox="0 0 28 28" fill="none" xmlns="http://www.w3.org/2000/svg">
<g clip-path="url(#clip0_2_102)">
<path d="M24.0626 2.58633L14.2638 0.953201C14.0854 0.923803 13.9034 0.923803 13.7249 0.953201L3.92616 2.58633C3.54512 2.65007 3.19902 2.84683 2.94935 3.14165C2.69968 3.43647 2.56261 3.81025 2.5625 4.19659V15.6285C2.5625 23.7941 13.9944 27.0603 13.9944 27.0603C13.9944 27.0603 25.4263 23.7941 25.4263 15.6285V4.19659C25.4261 3.81025 25.2891 3.43647 25.0394 3.14165C24.7897 2.84683 24.4436 2.65007 24.0626 2.58633ZM12.4674 19.6802L6.30726 13.5168L8.61649 11.2076L12.2518 14.8429L19.2743 6.416L21.7827 8.50967L12.4674 19.6802Z" fill="white"/>
</g>
<defs>
<clipPath id="clip0_2_102">
<rect width="26.13" height="26.13" fill="white" transform="translate(0.929688 0.930176)"/>
</clipPath>
</defs>
</svg>
