<svg width="28" height="28" viewBox="0 0 28 28" fill="none" xmlns="http://www.w3.org/2000/svg">
<g clip-path="url(#clip0_2_113)">
<path d="M13.9956 9.64018C12.8406 9.64018 11.7329 9.18135 10.9162 8.36463C10.0995 7.5479 9.64063 6.44019 9.64062 5.28518C9.64062 4.13016 10.0995 3.02245 10.9162 2.20573C11.7329 1.389 12.8406 0.930176 13.9956 0.930176C15.1506 0.930176 16.2584 1.389 17.0751 2.20573C17.8918 3.02245 18.3506 4.13016 18.3506 5.28518C18.3506 6.44019 17.8918 7.5479 17.0751 8.36463C16.2584 9.18135 15.1506 9.64018 13.9956 9.64018Z" fill="white"/>
<path d="M25.8785 22.2633L22.0973 13.7569C21.8406 13.1798 21.4221 12.6894 20.8925 12.3453C20.3628 12.0011 19.7447 11.8179 19.113 11.8179H8.8788C8.24714 11.8179 7.62904 12.0011 7.09938 12.3453C6.56971 12.6894 6.1512 13.1798 5.89453 13.7569L2.11331 22.2633C2.03046 22.4498 2.00168 22.6558 2.03027 22.8579C2.05885 23.0599 2.14364 23.2499 2.27497 23.4061C2.40629 23.5622 2.57887 23.6784 2.77301 23.7412C2.96716 23.8041 3.17505 23.8111 3.37299 23.7615L7.46342 22.738V27.0604H20.5284V22.738L24.6189 23.7615C24.8168 23.8111 25.0247 23.8041 25.2188 23.7412C25.413 23.6784 25.5856 23.5622 25.7169 23.4061C25.8482 23.2499 25.933 23.0599 25.9616 22.8579C25.9902 22.6558 25.9614 22.4498 25.8785 22.2633ZM5.01047 21.1071L7.46342 15.5871V20.4941L5.01047 21.1071ZM15.9089 21.584L18.3509 22.1937V23.7941L13.9959 24.8829L9.64092 23.7941V22.1937L12.083 21.584L11.5539 19.4718L9.64092 19.9497V16.1729L13.9959 17.2616L18.3509 16.1729V19.9497L16.438 19.4718L15.9089 21.584ZM20.5284 20.4952V15.5871L22.9814 21.1071L20.5284 20.4952Z" fill="white"/>
</g>
<defs>
<clipPath id="clip0_2_113">
<rect width="26.13" height="26.13" fill="white" transform="translate(0.929688 0.930176)"/>
</clipPath>
</defs>
</svg>
