<svg width="32" height="24" viewBox="0 0 32 24" fill="none" xmlns="http://www.w3.org/2000/svg">
<path d="M16.172 0.637695C11.4272 0.637695 6.97143 0.99707 4.599 1.49963C3.01831 1.85901 1.651 2.93713 1.36462 4.59082C1.07825 6.3147 0.789062 8.90332 0.789062 12.1377C0.789062 15.3721 1.07544 17.8877 1.43481 19.6846C1.724 21.2653 3.0885 22.4164 4.66919 22.7758C7.18762 23.2783 11.4974 23.6377 16.2422 23.6377C20.9871 23.6377 25.2968 23.2783 27.8124 22.7758C29.3959 22.4164 30.7604 21.3383 31.0468 19.6846C31.336 17.8877 31.6953 15.3019 31.7655 12.0675C31.7655 8.83313 31.4062 6.24451 31.0468 4.44763C30.7604 2.86694 29.3959 1.71582 27.8124 1.35645C25.2968 0.99707 20.9141 0.637695 16.172 0.637695ZM16.172 2.0752C21.3465 2.0752 25.513 2.50476 27.526 2.86414C28.6042 3.15332 29.4661 3.87207 29.6093 4.80701C30.0417 7.10645 30.328 9.55188 30.328 12.0675C30.2579 15.1559 29.8985 17.6715 29.6093 19.4684C29.3959 20.8329 27.9584 21.2653 27.526 21.4113C24.9374 21.9138 20.6249 22.2704 16.3124 22.2704C11.9999 22.2704 7.61718 21.984 5.10156 21.4113C4.02344 21.1221 3.1615 20.4033 3.01831 19.4684C2.44275 17.4553 2.22656 14.7965 2.22656 12.1377C2.22656 8.83032 2.51574 6.3877 2.80212 4.88C3.01831 3.5127 4.526 3.08032 4.88537 2.93713C7.25781 2.43457 11.6433 2.0752 16.172 2.0752ZM12.2891 6.3877V17.8877L22.3516 12.1377L12.2891 6.3877ZM13.7266 8.83313L19.4766 12.1377L13.7266 15.4423V8.83313Z" fill="white"/>
</svg>
